PathFileType	4	(X/Y/Z)	Patient4_TMGait_0pt5_01_left_03.trc.trc
DataRate	CameraRate	NumFrames	NumMarkers	Units	OrigDataRate	OrigDataStartFrame	OrigNumFrames
71.794871794872	71.794871794872	5	33	mm	71.794871794872	124	       141
Frame#	Time	L.ASIS			Sacral			L.Shoulder			Chest			R.Shoulder			Neck			R.ASIS			R.Thigh.Superior			R.Thigh.Lateral			R.Thigh.Inferior			R.Patella			L.Thigh.Superior			L.Thigh.Lateral			L.Thigh.Inferior			L.Patella			L.Shank.Superior			L.Shank.Lateral			L.Shank.Inferior			R.Shank.Superior			R.Shank.Lateral			R.Shank.Inferior			R.Heel			R.Midfoot.Superior			R.Midfoot.Lateral			R.Toe			L.Heel			L.Midfoot.Lateral			L.Midfoot.Superior			L.Toe			L.Elbow			L.Wrist			R.Elbow			R.Wrist			
		X1	Y1	Z1	X2	Y2	Z2	X3	Y3	Z3	X4	Y4	Z4	X5	Y5	Z5	X6	Y6	Z6	X7	Y7	Z7	X8	Y8	Z8	X9	Y9	Z9	X10	Y10	Z10	X11	Y11	Z11	X12	Y12	Z12	X13	Y13	Z13	X14	Y14	Z14	X15	Y15	Z15	X16	Y16	Z16	X17	Y17	Z17	X18	Y18	Z18	X19	Y19	Z19	X20	Y20	Z20	X21	Y21	Z21	X22	Y22	Z22	X23	Y23	Z23	X24	Y24	Z24	X25	Y25	Z25	X26	Y26	Z26	X27	Y27	Z27	X28	Y28	Z28	X29	Y29	Z29	X30	Y30	Z30	X31	Y31	Z31	X32	Y32	Z32	X33	Y33	Z33	

124	5.533214285714	704.726148978280	955.965420532626	365.706434958893	514.019011995732	1000.342254422878	551.979455203885	654.423789960132	1427.157064244595	348.337699152898	780.242245591254	1356.660292127549	491.635309782057	725.349779140505	1433.483115510916	676.036853388016	678.908091840082	1488.667612934129	497.356490510504	751.561248072064	932.248716832656	637.287879779593	752.536068356442	721.196929464691	604.960865655456	655.196098748491	624.110515826280	669.722248283477	710.621847269005	561.811042815983	583.448984637585	691.438102764157	475.009055793592	585.567737388878	781.579253021087	768.575968382201	390.747577318420	720.916148430833	640.011716419944	324.450544440025	823.731323291334	579.022384989402	382.139193866588	846.634674706721	515.856949730429	383.480271404388	835.586108091486	444.795742731210	372.680314736740	778.513975435624	311.693331791824	321.307517547614	871.004733128598	219.134931880057	377.926499198131	652.625715236885	390.770085706254	592.235496109899	571.166957040829	296.338344641949	654.999449654749	593.561056829673	199.008396638783	587.567069482431	437.902610530544	43.984568471179	557.988781229692	610.016704291159	95.797336231065	593.536020616623	520.873052843157	35.758964160211	631.970175571823	729.300011123394	40.394147191342	622.908250235536	794.768303863496	40.267272495525	415.550224936032	871.256410445652	44.792388380739	337.853477854408	939.605043943986	122.135767353177	359.269954609520	1073.748891152428	94.406224885037	339.526785773267	537.333111281357	1087.058200359487	258.132891286119	536.104101213128	828.029000186941	241.042074821207	874.830627123459	1132.252101747445	786.283179808299	1101.265014989467	1192.275186652587	692.979241165135	
125	5.547142857143	707.127841649626	954.222862072144	364.946662932070	515.260405016203	998.885653450925	550.036577237486	653.980255144408	1425.824406805673	346.624045798355	780.012258316229	1355.937128721889	490.081789980160	724.441928515297	1432.371791805954	674.486653005619	678.057351396158	1487.512447747289	495.633588806315	752.751836046909	931.377906357186	636.787152557961	752.238496116223	719.768574446348	604.951036995725	653.484617146743	623.431573078899	669.249085424361	708.784437021401	560.547497649216	583.415612305424	688.544052326043	473.618997264650	585.152759620611	784.670353451059	767.003711534289	390.039868215743	722.521287623185	637.853022943320	325.011835944436	825.752641894932	577.190209502079	382.134135399900	847.431580411994	512.796324873274	384.410699262657	835.585772654788	441.202170618522	374.025337617419	775.680091333919	309.236455999352	322.481343258171	865.459904363759	214.499027498828	379.833846612636	648.911258435410	389.840760002752	591.954536572133	566.531648503487	296.268769184104	654.980485257614	587.836159393988	198.620625144671	587.539816179574	430.962950667696	44.248312702229	558.180144969615	603.185339581081	95.748615274612	593.669351566140	513.983771867723	35.742094740819	632.069871222136	722.458180240521	40.097397922285	623.004635897304	783.515127316617	38.950282335692	416.602696627755	860.457891258697	41.430500421940	339.075701370597	932.016419555283	115.451837580190	361.896107056842	1065.316587399500	82.257287054662	342.100279629490	537.317837757758	1085.791878067657	255.880935630195	539.220017734261	826.603617878527	238.165132521844	875.059334977597	1130.862179633343	783.326265584950	1100.751922493620	1191.884452132271	688.153703849851	
126	5.561071428571	709.675305507473	952.699651343289	364.125972831751	516.559706281331	997.616682171653	547.887585290084	653.783527918842	1424.579150556338	344.740915219728	779.960458563142	1355.336196681378	488.443214241430	723.602395722641	1431.417358867813	672.808304607993	677.399882904729	1486.492354920469	493.706454810736	753.959304172783	930.511694666675	636.173432211416	752.063623159898	718.431429116183	604.836450557912	651.910510826672	622.859182087366	668.639115457509	707.174470802137	559.376315271410	583.281342867830	685.897949284755	472.272644443857	584.685914016895	787.620566114268	765.405816544885	389.643348618333	724.422516898565	636.025201440423	325.321389525337	827.545312035045	575.461676114594	382.603905899335	848.037655420514	509.937932926269	385.612042810652	835.549280674101	437.935335072443	375.356448494921	773.299653728100	307.047816288704	323.340879166729	860.307256753512	210.278668862126	381.621228363905	645.402877253209	388.995159960437	591.632939715548	562.010842543759	296.368481011552	654.947944295740	582.226020178439	198.368931986157	587.546579601634	424.070149799792	44.767325562753	558.422847352576	596.463419736832	95.754609110771	593.850522185932	507.149002035142	35.836615094309	632.201069434461	715.670489522161	39.747621715597	623.105481839159	772.956754778712	37.808347292778	417.271755130455	850.428074258185	38.588528215548	340.041333380352	924.872366629713	109.444466964810	364.457043414460	1057.373680417060	71.221859581885	344.764764022332	537.741691921137	1084.499848879361	253.478290481755	543.095296816334	825.151717747898	235.127928526276	874.672294250384	1129.283274659731	780.648476275478	1100.129989423802	1190.225484387280	683.792064529954	
127	5.575000000000	712.232883372769	951.501192630764	363.181023587503	517.864306143671	996.613380518059	545.552284378121	653.876467036139	1423.509483398663	342.711483997996	780.111697851263	1354.895489288679	486.729233513937	722.899223455814	1430.676438205116	671.008341404699	676.993726871411	1485.672229684152	491.603157961385	755.129983872488	929.705642242923	635.374405062776	752.023514177806	717.261542839866	604.538794038600	650.564560499458	622.423917987412	667.845116202697	705.894990978575	558.345588707727	582.992302345634	683.646329076123	470.989012541843	584.153049354981	790.304072198696	763.931400272562	389.536417556167	726.585662163729	634.648304685188	325.340807909989	829.096067250627	573.994029896687	383.477581989871	848.485733312127	507.454499255705	386.975126456627	835.500609653000	435.164268780543	376.591430409986	771.454130060007	305.284190342968	323.863899556549	855.674253307127	206.708819744648	383.220486833631	642.204054668724	388.254823955829	591.251104488305	557.684404415225	296.696225385623	654.881398760448	576.788469321217	198.302858063926	587.586644047840	417.237713190573	45.658309032442	558.722407651649	589.881245736253	95.842490334064	594.086656455269	500.371074320462	36.106575424780	632.364840879588	708.923235992366	39.345474377137	623.203488651418	763.425522200626	36.962491985214	417.632236730429	841.427672425383	36.429939907483	340.768179799120	918.303709999904	104.438442510455	366.813861293040	1050.069267449825	61.855590806811	347.307883944037	538.676927032951	1083.271190183868	250.941124337359	547.704116865351	823.784531932563	231.964843394132	873.695567741305	1127.577586863719	778.254632013113	1099.447488269912	1187.190878046768	679.954446460349	
128	5.588928571429	714.675586696555	950.713235319879	362.041074581186	519.122350945374	995.939779694863	543.041795807671	654.286796097562	1422.700165148606	340.561156181511	780.478754961344	1354.644772391553	484.947540309637	722.393419688639	1430.193731214120	669.094985567566	676.880690526896	1485.108023626973	489.359558754195	756.211634585945	929.022389625121	634.322972463315	752.120533616741	716.331941640439	603.986182814953	649.527638724421	622.154260257019	666.831127749030	705.040582623929	557.499103577566	582.509911721097	681.930167039783	469.783868744797	583.557118173636	792.653112825170	762.745051329486	389.648762688049	728.971359303618	633.807997247318	325.055282709781	830.436234785298	572.920598670934	384.622539080059	848.831834285925	505.468496320222	388.369500725940	835.454461861441	432.989217490403	377.660786448094	770.121701572424	304.055001357320	324.050081350241	851.548485603898	203.921339418052	384.582465193720	639.409941160608	387.639487356719	590.801533995788	553.626566008619	297.309518418018	654.765168852124	571.577837435690	198.472471736021	587.663820025693	410.479057981182	47.042420926905	559.082086672410	583.464414042567	96.039480654243	594.385430668053	493.646362376516	36.621657334715	632.561869258613	702.190838798218	38.898308888133	623.291054093526	755.002521776943	36.475265829161	417.763729106222	833.478656108760	35.011412687852	341.281312908336	912.269443244783	100.604714693082	368.848469785830	1043.378587701678	54.457389440777	349.540225489820	540.180196513531	1082.198715757862	248.270239967235	553.044709309840	822.621050029525	228.699132845504	872.145850416990	1125.803671652870	776.133138058833	1098.705863701086	1182.644302942101	676.709991062039	
